<svg data-v-d3f97b9e="" xmlns="http://www.w3.org/2000/svg" viewBox="0 0 530.5102547244835 181"><!----><!----><!----><g data-v-d3f97b9e="" id="41f2b741-865f-468f-82d8-3341d4525803" fill="#361A02" transform="matrix(6.122449456230433,0,0,6.122449456230433,1.7755071439360108,108.25801081530295)"><path d="M-0.29 3.57L-0.29 1.93L5.46 1.93L5.46 3.57L3.55 3.57L3.55 10.34L4.42 10.34L4.42 10.54L3.55 10.54L3.55 11.29L3.04 11.29L3.04 11.55L3.40 11.55L3.40 11.73L1.66 11.73L1.66 11.73Q1.63 11.73 1.63 11.70L1.63 11.70L1.63 3.57L-0.29 3.57ZM3.54 10.34L2.88 10.34L2.88 10.54L3.54 10.54L3.54 10.34ZM5.03 7.49L5.03 1.96L8.38 1.96L8.38 1.96Q10.06 1.96 10.55 3.14L10.55 3.14L10.55 3.14Q10.77 3.75 10.77 4.53L10.77 4.53L10.77 4.94L10.77 4.94Q10.77 6.36 10.14 7.11L10.14 7.11L9.43 7.11L9.43 7.47L10.52 7.47L10.52 9.81L9.88 9.81L9.88 10.17L10.85 10.17L10.85 11.55L8.81 11.55L8.81 9.34L8.03 9.34L8.03 7.92L6.66 7.92L6.66 10.34L6.95 10.34L6.95 11.73L5.07 11.73L5.07 11.73Q5.03 11.73 5.03 11.70L5.03 11.70L5.03 7.77L5.87 7.77L5.87 7.49L5.03 7.49ZM7.76 3.55L6.95 3.55L6.95 6.31L7.42 6.31L7.42 6.31Q8.46 6.31 8.63 6.11L8.63 6.11L8.63 6.11Q8.80 6.00 8.89 5.67L8.89 5.67L9.62 5.67L9.62 5.32L8.96 5.32L8.96 5.35L8.96 5.35Q8.91 5.67 8.88 5.67L8.88 5.67L7.94 5.67L7.94 5.32L8.93 5.32L8.93 5.32Q8.96 5.32 8.96 5.29L8.96 5.29L8.96 5.29Q8.98 4.87 8.98 4.81L8.98 4.81L8.98 4.81Q8.98 3.90 8.66 3.69L8.66 3.69L8.66 3.69Q8.42 3.55 7.76 3.55L7.76 3.55ZM14.85 1.95L14.85 1.95L14.85 1.95Q16.96 1.95 17.62 3.42L17.62 3.42L17.62 3.42Q18.00 4.14 18.00 6.19L18.00 6.19L18.00 6.23L17.27 6.23L17.27 6.56L18.00 6.56L18.00 10.10L17.52 10.10L17.52 11.37L16.57 11.37L16.57 11.73L13.25 11.73L13.25 11.37L12.84 11.37L12.84 10.10L11.99 10.10L11.99 9.10L12.50 9.10L12.50 8.57L11.99 8.57L11.99 9.10L10.78 9.10L10.78 8.57L11.70 8.57L11.70 8.57Q11.68 7.38 11.68 6.74L11.68 6.74L11.68 5.91L11.68 5.91Q11.68 3.58 12.47 2.80L12.47 2.80L12.47 2.80Q13.19 1.95 14.85 1.95ZM13.66 5.32L13.66 5.32L13.68 5.32L13.66 5.35L13.66 6.23L12.93 6.23L12.93 6.56L13.66 6.56L13.66 6.56Q13.64 8.67 13.64 9.75L13.64 9.75L13.64 10.10L15.28 10.10L15.28 9.56L16.03 9.56L16.03 9.54L16.03 9.54Q16.03 8.54 16.02 6.75L16.02 6.75L16.02 6.75Q16.02 6.68 16.03 6.38L16.03 6.38L16.03 6.38Q16.03 4.45 15.80 4.01L15.80 4.01L15.80 4.01Q15.57 3.58 14.95 3.58L14.95 3.58L14.71 3.58L14.71 3.58Q13.97 3.58 13.79 4.24L13.79 4.24L13.79 4.24Q13.71 4.56 13.66 5.32ZM18.00 6.56L18.00 6.23L19.17 6.23L19.17 6.56L18.00 6.56ZM19.21 1.96L19.21 1.96L21.13 1.96L21.13 1.96Q21.13 3.37 21.62 4.35L21.62 4.35L21.62 4.35Q22.15 5.64 22.35 6.39L22.35 6.39L22.35 6.41L22.36 6.41L22.36 6.41Q22.61 5.50 23.38 3.62L23.38 3.62L23.38 3.62Q23.58 2.72 23.58 1.96L23.58 1.96L25.38 1.96L25.38 1.96Q25.22 3.43 24.97 4.13L24.97 4.13L23.88 6.59L23.23 6.59L23.23 8.28L22.23 8.28L22.23 8.61L23.23 8.61L23.23 11.73L21.36 11.73L21.36 11.73Q21.33 11.73 21.33 11.70L21.33 11.70L21.33 10.17L21.03 10.17L21.03 7.46L21.59 7.46L21.59 7.21L20.98 7.21L20.98 7.21Q20.90 7.12 19.84 4.67L19.84 4.67L19.84 4.67Q19.40 3.68 19.40 3.49L19.40 3.49L20.21 3.49L20.21 3.14L19.34 3.14L19.34 3.14Q19.21 2.06 19.21 1.96ZM18.04 3.49L18.04 3.14L19.34 3.14L19.39 3.49L18.04 3.49ZM23.23 8.61L23.23 8.28L24.04 8.28L24.04 8.61L23.23 8.61ZM29.05 1.96L29.05 1.96L29.05 1.96Q30.68 1.96 31.23 3.01L31.23 3.01L31.23 3.01Q31.62 3.80 31.62 4.56L31.62 4.56L31.60 4.56L31.60 4.56Q30.49 4.66 30.08 4.66L30.08 4.66L30.08 4.66Q30.08 4.12 29.74 3.75L29.74 3.75L29.74 3.75Q29.43 3.57 29.16 3.57L29.16 3.57L28.89 3.57L28.89 3.57Q28.19 3.57 28.04 4.11L28.04 4.11L28.04 4.11Q28.01 4.27 28.01 4.35L28.01 4.35L28.01 4.50L28.01 4.50Q28.01 5.26 28.81 5.61L28.81 5.61L28.81 5.61Q28.88 5.67 29.93 6.12L29.93 6.12L29.93 6.12Q30.50 6.38 30.97 6.76L30.97 6.76L30.97 6.77L29.26 6.77L29.26 6.97L31.52 6.97L31.52 7.24L31.81 7.24L31.81 10.21L31.25 10.21L31.25 11.73L26.90 11.73L26.90 10.21L25.87 10.21L25.87 9.18L26.46 9.18L26.46 8.83L25.87 8.83L25.87 8.59L27.86 8.59L27.86 10.21L29.90 10.21L29.90 7.77L28.38 7.77L28.38 6.97L26.48 6.97L26.48 6.77L27.40 6.77L27.40 6.76L27.40 6.76Q26.20 5.96 26.20 4.50L26.20 4.50L26.20 4.37L26.20 4.37Q26.20 3.14 26.95 2.51L26.95 2.51L26.95 2.51Q27.63 1.96 29.05 1.96ZM31.52 6.97L31.52 6.77L32.21 6.77L32.21 6.97L31.52 6.97ZM25.22 9.18L25.22 8.83L25.87 8.83L25.87 9.18L25.22 9.18ZM36.16 1.93L36.16 1.93L38.94 1.93L38.94 1.93Q40.79 1.93 41.30 2.87L41.30 2.87L41.30 2.87Q41.58 3.36 41.58 4.21L41.58 4.21L41.58 4.89L41.58 4.89Q41.58 5.86 40.74 6.45L40.74 6.45L40.74 6.45Q41.03 6.50 41.47 6.89L41.47 6.89L41.68 6.89L41.68 6.89Q42.10 7.31 42.22 7.71L42.22 7.71L42.22 7.71Q42.25 7.85 42.25 7.86L42.25 7.86L42.52 7.86L42.52 8.03L41.63 8.03L41.63 7.86L39.81 7.86L39.81 7.34L38.01 7.34L38.01 10.19L39.14 10.19L39.14 9.99L39.81 9.99L39.81 8.03L41.63 8.03L41.63 9.75L41.84 9.75L41.84 10.84L41.23 10.84L41.23 11.09L41.84 11.09L41.84 11.55L39.52 11.55L39.52 11.73L36.99 11.73L36.99 11.55L36.44 11.55L36.44 10.04L37.19 10.04L37.19 9.64L36.44 9.64L36.44 9.64Q36.42 8.49 36.42 7.93L36.42 7.93L36.42 7.21L35.79 7.21L35.79 7.02L36.42 7.02L36.42 6.64L36.12 6.64L36.12 1.97L36.12 1.97Q36.13 1.93 36.16 1.93ZM38.36 3.59L38.05 3.59L38.05 6.02L38.47 6.02L38.47 6.02Q39.20 6.02 39.44 5.77L39.44 5.77L39.44 5.77Q39.67 5.57 39.67 4.70L39.67 4.70L39.67 4.66L39.67 4.66Q39.67 3.91 39.44 3.76L39.44 3.76L39.44 3.76Q39.28 3.59 38.36 3.59L38.36 3.59ZM37.34 7.02L36.44 7.02L36.44 7.21L37.34 7.21L37.34 7.02ZM36.07 7.69L36.07 7.24L36.41 7.24L36.41 7.31L36.41 7.31Q36.41 7.34 36.37 7.34L36.37 7.34L36.17 7.34L36.17 7.41L36.35 7.41L36.35 7.41Q36.39 7.42 36.39 7.44L36.39 7.44L36.39 7.48L36.39 7.48Q36.39 7.51 36.35 7.51L36.35 7.51L36.17 7.51L36.17 7.59L36.41 7.59L36.41 7.66L36.41 7.66Q36.41 7.69 36.37 7.69L36.37 7.69L36.07 7.69ZM38.88 8.03L38.88 7.86L39.81 7.86L39.81 8.03L38.88 8.03ZM41.90 8.06L41.90 8.06L41.95 8.06L41.95 8.06Q41.99 8.07 41.99 8.09L41.99 8.09L41.99 8.38L41.99 8.38Q41.96 8.53 41.84 8.53L41.84 8.53L41.84 8.53Q41.68 8.50 41.68 8.38L41.68 8.38L41.68 8.36L41.68 8.36Q41.69 8.33 41.71 8.33L41.71 8.33L41.75 8.33L41.75 8.33Q41.78 8.33 41.80 8.43L41.80 8.43L41.86 8.43L41.86 8.09L41.86 8.09Q41.87 8.06 41.90 8.06ZM41.75 8.65L41.75 8.65L41.88 8.65L41.88 8.65Q42.12 8.65 42.12 8.90L42.12 8.90L42.12 8.90Q42.12 9.07 41.90 9.10L41.90 9.10L41.71 9.10L41.71 8.68L41.71 8.68Q41.72 8.65 41.75 8.65ZM41.88 8.75L41.84 8.75L41.84 9.00L41.90 9.00L41.90 9.00Q42 9.00 42 8.90L42 8.90L42 8.87L42 8.87Q42 8.75 41.88 8.75L41.88 8.75ZM41.75 9.24L41.75 9.24L42 9.24L42 9.24Q42.03 9.24 42.03 9.27L42.03 9.27L42.03 9.34L41.84 9.34L41.84 9.42L42 9.42L42 9.50L41.84 9.50L41.84 9.65L41.84 9.65Q41.84 9.69 41.80 9.69L41.80 9.69L41.71 9.69L41.71 9.27L41.71 9.27Q41.72 9.24 41.75 9.24ZM39.40 9.57L39.40 9.50L39.76 9.50L39.76 9.58L39.54 9.86L39.77 9.86L39.77 9.92L39.77 9.92Q39.77 9.95 39.74 9.95L39.74 9.95L39.42 9.95L39.42 9.95Q39.39 9.95 39.39 9.92L39.39 9.92L39.39 9.87L39.61 9.60L39.44 9.60L39.44 9.60Q39.40 9.60 39.40 9.57L39.40 9.57ZM38.06 9.86L38.06 9.79L38.08 9.79L38.08 9.79Q38.40 9.88 38.40 9.92L38.40 9.92L38.40 9.95L38.40 9.95Q38.36 10.00 38.08 10.10L38.08 10.10L38.06 10.07L38.06 10.06L38.06 10.06Q38.06 10.01 38.27 9.95L38.27 9.95L38.27 9.95Q38.27 9.92 38.06 9.86L38.06 9.86ZM42.56 6.33L42.56 1.94L44.45 1.94L44.45 7.12L43.56 7.12L43.56 7.39L44.45 7.39L44.45 8.36L44.45 8.36Q44.45 9.69 44.92 9.91L44.92 9.91L44.92 9.91Q45.16 10.06 45.51 10.06L45.51 10.06L46.09 10.06L46.09 8.34L46.61 8.34L46.61 1.94L48.48 1.94L48.48 7.96L47.80 7.96L47.80 8.39L48.48 8.39L48.48 8.39Q48.47 8.61 48.47 8.72L48.47 8.72L48.47 10.64L47.48 10.64L47.48 11.73L43.11 11.73L43.11 10.38L42.70 10.38L42.70 6.33L42.56 6.33ZM44.45 7.39L44.45 7.12L45.51 7.12L45.51 7.39L44.45 7.39ZM48.58 3.57L48.58 1.93L54.32 1.93L54.32 3.57L52.42 3.57L52.42 10.34L53.28 10.34L53.28 10.54L52.42 10.54L52.42 11.29L51.91 11.29L51.91 11.55L52.27 11.55L52.27 11.73L50.52 11.73L50.52 11.73Q50.49 11.73 50.49 11.70L50.49 11.70L50.49 3.57L48.58 3.57ZM52.40 10.34L51.74 10.34L51.74 10.54L52.40 10.54L52.40 10.34ZM57.71 1.93L57.71 1.93L57.71 1.93Q59.76 1.93 60.29 3.22L60.29 3.22L60.29 3.22Q60.44 3.53 60.44 3.63L60.44 3.63L59.58 3.63L59.58 3.89L60.51 3.89L60.51 3.88L60.51 3.88Q60.51 3.81 60.44 3.63L60.44 3.63L62.02 3.63L62.02 3.89L60.53 3.89L60.53 3.91L60.53 3.91Q60.64 4.46 60.69 5.09L60.69 5.09L60.69 5.09Q60.69 5.13 58.89 5.22L58.89 5.22L58.89 5.21L58.89 5.21Q58.89 3.58 57.78 3.58L57.78 3.58L57.57 3.58L57.57 3.58Q56.74 3.58 56.55 4.29L56.55 4.29L56.55 4.29Q56.41 4.89 56.41 5.87L56.41 5.87L56.41 7.21L56.39 7.40L55.76 7.40L55.76 7.71L56.39 7.71L56.39 10.08L59.02 10.08L59.02 7.62L60.54 7.62L60.54 10.08L59.70 10.08L59.70 11.60L57.94 11.60L57.94 11.73L56.57 11.73L56.57 11.60L55.19 11.60L55.19 10.84L56.11 10.84L56.11 10.51L54.72 10.51L54.72 9.39L54.13 9.39L54.13 8.00L54.45 8.00L54.45 8.00Q54.43 7.16 54.43 6.66L54.43 6.66L54.43 6.66Q54.43 4.42 54.64 3.84L54.64 3.84L54.64 3.84Q54.85 3.17 55.30 2.69L55.30 2.69L55.30 2.69Q56.11 1.93 57.71 1.93ZM61.21 6.64L61.21 1.96L63.15 1.96L63.15 5.85L65.11 5.85L65.11 1.96L66.75 1.96L66.75 7.51L66.07 7.51L66.07 7.75L66.75 7.75L66.75 11.73L65.13 11.73L65.13 11.73Q65.11 11.73 65.11 11.70L65.11 11.70L65.11 7.48L63.15 7.48L63.15 11.70L63.15 11.70Q63.15 11.73 63.12 11.73L63.12 11.73L61.49 11.73L61.49 6.64L61.21 6.64ZM66.75 7.75L66.75 7.51L67.61 7.51L67.61 7.75L66.75 7.75ZM68.24 6.80L68.24 2.00L73.04 2.00L73.04 3.60L73.04 3.60Q73.04 3.63 73.00 3.63L73.00 3.63L70.16 3.63L70.16 5.74L72.71 5.74L72.71 5.76L72.71 5.76Q72.71 5.84 72.68 6.79L72.68 6.79L72.68 6.79Q72.66 6.79 72.66 6.80L72.66 6.80L72.78 6.80L72.78 7.29L70.57 7.29L70.57 9.29L69.97 9.29L69.97 9.49L70.57 9.49L70.57 10.10L73.07 10.10L73.07 10.32L72.87 10.32L72.87 11.52L69.88 11.52L69.88 11.73L68.46 11.73L68.46 8.24L68.24 8.24L68.24 7.01L66.68 7.01L66.68 6.80L68.24 6.80ZM69.06 6.80L68.26 6.80L68.26 7.01L69.06 7.01L69.06 6.80ZM73.81 7.49L73.81 1.96L77.16 1.96L77.16 1.96Q78.84 1.96 79.33 3.14L79.33 3.14L79.33 3.14Q79.54 3.75 79.54 4.53L79.54 4.53L79.54 4.94L79.54 4.94Q79.54 6.36 78.92 7.11L78.92 7.11L78.21 7.11L78.21 7.47L79.30 7.47L79.30 9.81L78.65 9.81L78.65 10.17L79.63 10.17L79.63 11.55L77.59 11.55L77.59 9.34L76.80 9.34L76.80 7.92L75.43 7.92L75.43 10.34L75.73 10.34L75.73 11.73L73.84 11.73L73.84 11.73Q73.81 11.73 73.81 11.70L73.81 11.70L73.81 7.77L74.65 7.77L74.65 7.49L73.81 7.49ZM76.54 3.55L75.73 3.55L75.73 6.31L76.19 6.31L76.19 6.31Q77.24 6.31 77.40 6.11L77.40 6.11L77.40 6.11Q77.57 6.00 77.67 5.67L77.67 5.67L78.39 5.67L78.39 5.32L77.74 5.32L77.74 5.35L77.74 5.35Q77.68 5.67 77.66 5.67L77.66 5.67L76.72 5.67L76.72 5.32L77.70 5.32L77.70 5.32Q77.74 5.32 77.74 5.29L77.74 5.29L77.74 5.29Q77.75 4.87 77.75 4.81L77.75 4.81L77.75 4.81Q77.75 3.90 77.44 3.69L77.44 3.69L77.44 3.69Q77.19 3.55 76.54 3.55L76.54 3.55ZM83.20 1.96L83.20 1.96L83.20 1.96Q84.83 1.96 85.38 3.01L85.38 3.01L85.38 3.01Q85.76 3.80 85.76 4.56L85.76 4.56L85.75 4.56L85.75 4.56Q84.64 4.66 84.23 4.66L84.23 4.66L84.23 4.66Q84.23 4.12 83.89 3.75L83.89 3.75L83.89 3.75Q83.58 3.57 83.31 3.57L83.31 3.57L83.04 3.57L83.04 3.57Q82.34 3.57 82.19 4.11L82.19 4.11L82.19 4.11Q82.15 4.27 82.15 4.35L82.15 4.35L82.15 4.50L82.15 4.50Q82.15 5.26 82.96 5.61L82.96 5.61L82.96 5.61Q83.03 5.67 84.08 6.12L84.08 6.12L84.08 6.12Q84.64 6.38 85.12 6.76L85.12 6.76L85.12 6.77L83.41 6.77L83.41 6.97L85.67 6.97L85.67 7.24L85.96 7.24L85.96 10.21L85.39 10.21L85.39 11.73L81.05 11.73L81.05 10.21L80.02 10.21L80.02 9.18L80.60 9.18L80.60 8.83L80.02 8.83L80.02 8.59L82.01 8.59L82.01 10.21L84.05 10.21L84.05 7.77L82.52 7.77L82.52 6.97L80.63 6.97L80.63 6.77L81.55 6.77L81.55 6.76L81.55 6.76Q80.34 5.96 80.34 4.50L80.34 4.50L80.34 4.37L80.34 4.37Q80.34 3.14 81.09 2.51L81.09 2.51L81.09 2.51Q81.78 1.96 83.20 1.96ZM85.67 6.97L85.67 6.77L86.36 6.77L86.36 6.97L85.67 6.97ZM79.37 9.18L79.37 8.83L80.02 8.83L80.02 9.18L79.37 9.18Z"></path></g><linearGradient data-v-d3f97b9e="" gradientTransform="rotate(25)" id="5f8f0198-e913-4889-ad84-9a82ada9b838" x1="0%" y1="0%" x2="100%" y2="0%"><stop data-v-d3f97b9e="" offset="0%" style="stop-color: rgb(230, 53, 0); stop-opacity: 1;"></stop><stop data-v-d3f97b9e="" offset="100%" style="stop-color: rgb(255, 195, 22); stop-opacity: 1;"></stop></linearGradient><g data-v-d3f97b9e="" id="561d85c7-79f6-4f45-a66d-64fc62e6b158" transform="matrix(1.0907405429416233,0,0,1.0907405429416233,209.95618287186775,-0.6205023375951271)" stroke="none" fill="url(#5f8f0198-e913-4889-ad84-9a82ada9b838)"><path d="M83.025 15.207c2.319-6.314 14.131-4.391 14.131-4.391-6.904-3.476-14.748-2.606-20.979 1.825-8.2 5.833-12.682 19.122-17.665 19.305-2.773.101-9.774.449-14.028-9.985-4.253-10.433-13.321-14.3-16.683-15.809 2.607-1.44-.754-6.449-4.116-3.361-1.166-3.156-6.174-2.195-6.379 1.921-3.019-2.195-6.448 1.852-4.162 5.008-1.463-.366-7.043 1.349-8.872 7.203 0 0 7.449-3.534 10.221-1.715 4.39 2.881 6.281 6.517 5.774 12.146-.367 4.083-4.062 7.13-3.511 15.5.686 10.426 3.773 12.622 7.271 16.189 4.078 4.159 10.956 6.203 19.256 7.181-1.262 1.819-3.185 5.775-1.896 7.732.26.395 1.022.729 2.021.982.121 3.763.351 18.085-3.36 14.11-3.231-3.46-5.733-4.097-7.615-2.858-2.216 1.459-2.094 5.809-2.094 5.809s1.905-4.16 4.24-4.734c2.107-.519 4.622 1.801 4.457 2.365-.155.529-4.855.051-5.983 1.464-1.106 1.388-1.364 4.413-1.364 4.413 1.921-2.926 4.083-4.165 5.701-4.67 2.256-.701 2.543.31 3.434.851.44.268-1.113-.741-3.211.428-1.576.88-2.385 1.886-2.984 4.31 0 0 1.853-2.167 3.962-3.48 1.292-.805 5.865-.479 6.961-.389-.152 1.358-.009 2.531-.009 2.531s.346-.991.952-2.11c.36.265.842.7 1.416 1.413-.714 1.573-.691 4.061-.691 4.061 1.633-3.096 3.667-4.535 5.231-5.19 2.178-.914 2.561.063 3.498.518.463.226-1.179-.632-3.156.732-1.484 1.024-2.194 2.104-2.56 4.573 0 0 1.638-2.333 3.612-3.842 1.377-1.053 7.135-1.053 7.135-1.053s1.148.184 3.012 2.41c1.582 1.891-1.801-6.146-4.027-4.326l2.201-15.67c1.23-.056 2.254-.213 2.747-.478 1.784-.961 2.47-7.05 1.235-10.479 8.231.551 9.878-5.211 7.682-9.277 5.488 3.243 10.977-4.989 8.781-9.056 8.096-7.184 2.538-17.081 2.538-17.081.413-6.86 7.272-8.713 7.272-8.713-4.251-2.06-9.121.136-9.121.136 2.126-5.763 11.662-4.254 11.662-4.254-2.538-3.773-6.586-4.459-11.937-2.195zM48.429 93.628c-.279-.669-.653-1.398-1.083-1.999.555-.749 1.218-1.398 1.967-1.66 2.049-.717 4.773 1.352 4.662 1.93-.096.502-4.173.516-5.546 1.729zm6.499-2.403c-3.546-3.138-6.098-3.533-7.853-2.12-.441.355-.759.835-.993 1.364a1.115 1.115 0 0 0-1.115.103l3.618-15.109c1.541-.044 2.848-.284 3.309-.782.826-.894 1.434-2.092 1.874-3.355-.244 1.42-.443 2.828-.104 3.564.292.634 1.578 1.09 3.187 1.378.321 2.36 2.42 18.798-1.923 14.957z"></path></g><!----></svg>